Coordinates
version=1
nRows=20
nColumns=63
inDegrees=yes

Units are S.I. units (second, meters, Newtons, ...)
If the header above contains a line with 'inDegrees', this indicates whether rotational values are in degrees (yes) or radians (no).

endheader
time	pelvis_tilt	pelvis_list	pelvis_rotation	pelvis_tx	pelvis_ty	pelvis_tz	hip_flexion_r	hip_adduction_r	hip_rotation_r	knee_angle_r	knee_angle_r_beta	ankle_angle_r	subtalar_angle_r	mtp_angle_r	hip_flexion_l	hip_adduction_l	hip_rotation_l	knee_angle_l	knee_angle_l_beta	ankle_angle_l	subtalar_angle_l	mtp_angle_l	L5_S1_Flex_Ext	L5_S1_Lat_Bending	L5_S1_axial_rotation	L4_L5_Flex_Ext	L4_L5_Lat_Bending	L4_L5_axial_rotation	L3_L4_Flex_Ext	L3_L4_Lat_Bending	L3_L4_axial_rotation	L2_L3_Flex_Ext	L2_L3_Lat_Bending	L2_L3_axial_rotation	L1_L2_Flex_Ext	L1_L2_Lat_Bending	L1_L2_axial_rotation	L1_T12_Flex_Ext	L1_T12_Lat_Bending	L1_T12_axial_rotation	Abs_r3	Abs_r2	Abs_r1	Abs_t1	Abs_t2	neck_flexion	neck_bending	neck_rotation	arm_flex_r	arm_add_r	arm_rot_r	elbow_flex_r	pro_sup_r	wrist_flex_r	wrist_dev_r	arm_flex_l	arm_add_l	arm_rot_l	elbow_flex_l	pro_sup_l	wrist_flex_l	wrist_dev_l
0.000000	-1.668823	-3.770879	81.930305	0.323103	0.895524	0.607479	7.667261	-2.973314	-8.567939	14.898179	0.260022	34.492862	13.694136	0.000000	7.111467	-0.444029	-14.969884	11.687752	0.203990	39.033178	15.075775	0.000000	0.122953	0.072150	0.778042	0.228335	0.095960	0.826669	0.201999	0.175426	0.826669	0.140523	0.175426	0.680786	0.114174	0.147128	0.632159	0.070255	0.111760	0.583531	0.878239	0.816176	4.327234	0.000000	0.000000	26.750386	-8.566156	-9.497369	5.084013	-10.589553	33.448282	51.286153	69.000441	7.828394	13.462546	13.306230	-12.874541	54.944064	55.236685	74.209764	1.841650	-4.853026
0.016667	-1.215264	-3.937020	81.900294	0.323136	0.895511	0.606445	7.574919	-2.466128	-8.146116	14.140183	0.246793	34.955466	13.971796	0.000000	7.105536	-0.913576	-14.772001	11.735905	0.204830	38.953736	14.754613	0.000000	0.161439	0.135853	0.889743	0.299808	0.180685	0.945352	0.265228	0.330314	0.945352	0.184508	0.330314	0.778525	0.149912	0.277032	0.722916	0.092246	0.210437	0.667307	1.153141	1.536802	4.948485	0.000000	0.000000	27.066920	-8.626537	-9.224604	4.381306	-10.973157	32.822218	51.737518	69.687975	7.973344	13.789082	13.997220	-12.224992	56.801007	54.417135	70.731434	1.911961	-4.984681
0.033333	-0.833391	-4.064931	81.882939	0.323126	0.895518	0.605620	7.525288	-2.056509	-7.863062	13.588913	0.237171	35.355905	14.253599	0.000000	7.094573	-1.302791	-14.590140	11.755323	0.205169	38.923363	14.526280	0.000000	0.191851	0.189195	0.980757	0.356286	0.251630	1.042054	0.315192	0.460010	1.042054	0.219266	0.460010	0.858162	0.178153	0.385807	0.796865	0.109624	0.293064	0.735568	1.370372	2.140216	5.454676	0.000000	0.000000	27.312562	-8.679991	-9.012584	3.808150	-11.289789	32.325985	52.087133	70.037905	8.063099	14.113199	14.631261	-11.673340	58.506957	53.688839	67.781747	1.903213	-5.198001
0.050000	-0.518043	-4.158383	81.876561	0.323080	0.895543	0.604985	7.514431	-1.736266	-7.703875	13.224865	0.230817	35.699411	14.535883	0.000000	7.079390	-1.617919	-14.424601	11.749498	0.205067	38.936300	14.381334	0.000000	0.214970	0.232934	1.052930	0.399220	0.309802	1.118738	0.353173	0.566356	1.118738	0.245689	0.566356	0.921313	0.199621	0.474999	0.855505	0.122834	0.360815	0.789697	1.535506	2.634996	5.856079	0.000000	0.000000	27.494318	-8.726269	-8.855997	3.353555	-11.544835	31.947622	52.344153	70.082867	8.100310	14.433179	15.212978	-11.211459	60.074369	53.044883	65.311568	1.823648	-5.484343
0.066667	-0.264062	-4.221148	81.879482	0.323004	0.895581	0.604521	7.538410	-1.497206	-7.653653	13.028537	0.227391	35.991217	14.814986	0.000000	7.060798	-1.865203	-14.275685	11.721921	0.204586	38.986786	14.310332	0.000000	0.231575	0.267827	1.108109	0.430057	0.356210	1.177366	0.380454	0.651195	1.177366	0.264667	0.651195	0.969595	0.215040	0.546153	0.900339	0.132322	0.414865	0.831082	1.654114	3.029716	6.162970	0.000000	0.000000	27.619193	-8.765120	-8.749530	3.006532	-11.743682	31.675166	52.517735	69.855496	8.087629	14.747300	15.746991	-10.831225	61.515699	52.478354	63.271759	1.681505	-5.835065
0.083333	-0.066290	-4.256997	81.890026	0.322905	0.895630	0.604207	7.593290	-1.331140	-7.697495	12.980427	0.226551	36.236556	15.087243	0.000000	7.039611	-2.050889	-14.143693	11.676083	0.203786	39.069062	14.303829	0.000000	0.242446	0.294634	1.148142	0.450247	0.391863	1.219901	0.398315	0.716372	1.219901	0.277092	0.716372	1.004624	0.225136	0.600817	0.932865	0.138534	0.456388	0.861106	1.731769	3.332955	6.385621	0.000000	0.000000	27.694191	-8.796293	-8.687870	2.756090	-11.891716	31.496657	52.617032	69.388429	8.027708	15.053844	16.237923	-10.524511	62.843401	51.982336	61.613184	1.485026	-6.241523
0.100000	0.080434	-4.269701	81.906515	0.322788	0.895687	0.604024	7.675134	-1.229876	-7.820497	13.061031	0.227958	36.440661	15.348994	0.000000	7.016639	-2.181221	-14.028926	11.615476	0.202728	39.177367	14.352385	0.000000	0.248365	0.314111	1.174876	0.461238	0.417768	1.248306	0.408038	0.763730	1.248306	0.283856	0.763730	1.028016	0.230631	0.640535	0.954587	0.141916	0.486558	0.881157	1.774044	3.553288	6.534308	0.000000	0.000000	27.726318	-8.819539	-8.665706	2.591239	-11.994321	31.400132	52.651201	68.714301	7.923198	15.351090	16.690396	-10.283193	64.069928	51.549915	60.286705	1.242453	-6.695075
0.116667	0.181268	-4.263033	81.927270	0.322661	0.895749	0.603952	7.780006	-1.185222	-8.007759	13.250847	0.231271	36.608764	15.596576	0.000000	6.992695	-2.262444	-13.931683	11.543592	0.201474	39.305941	14.446555	0.000000	0.250110	0.327018	1.190158	0.464479	0.434934	1.264543	0.410906	0.795111	1.264543	0.285851	0.795111	1.041388	0.232252	0.666855	0.967004	0.142913	0.506551	0.892619	1.786511	3.699292	6.619303	0.000000	0.000000	27.722577	-8.834606	-8.677724	2.500991	-12.056886	31.373632	52.629398	67.865748	7.776751	15.637320	17.109034	-10.099144	65.207737	51.174178	59.243185	0.962027	-7.187077
0.133333	0.241371	-4.240764	81.950614	0.322529	0.895811	0.603971	7.903968	-1.188988	-8.244379	13.530373	0.236150	36.746099	15.826326	0.000000	6.968591	-2.300801	-13.852267	11.463921	0.200083	39.449025	14.576896	0.000000	0.248463	0.334112	1.195836	0.461420	0.444369	1.270576	0.408199	0.812360	1.270576	0.283968	0.812360	1.046357	0.230722	0.681321	0.971617	0.141972	0.517540	0.896877	1.774744	3.779543	6.650881	0.000000	0.000000	27.689975	-8.841245	-8.718612	2.474355	-12.084795	31.405195	52.560778	66.875405	7.591019	15.910814	17.498457	-9.964240	66.269282	50.848210	58.433489	0.651987	-7.708886
0.150000	0.265903	-4.206665	81.974870	0.322400	0.895872	0.604062	8.043085	-1.232982	-8.515454	13.880105	0.242254	36.857899	16.034581	0.000000	6.945138	-2.302538	-13.790977	11.379956	0.198618	39.600857	14.733967	0.000000	0.244203	0.336152	1.193757	0.453509	0.447082	1.268366	0.401200	0.817320	1.268366	0.279099	0.817320	1.044537	0.226766	0.685481	0.969927	0.139537	0.520699	0.895317	1.744314	3.802618	6.639316	0.000000	0.000000	27.635515	-8.839205	-8.783058	2.500342	-12.083435	31.482858	52.454495	65.775908	7.368653	16.169852	17.863288	-9.870355	67.267016	50.565096	57.808479	0.320577	-8.251861
0.166667	0.260021	-4.164507	81.998358	0.322279	0.895928	0.604205	8.193419	-1.309013	-8.806083	14.280540	0.249242	36.949397	16.217680	0.000000	6.923150	-2.273899	-13.748114	11.295187	0.197138	39.755678	14.908323	0.000000	0.238110	0.333896	1.185767	0.442194	0.444081	1.259878	0.391191	0.811834	1.259878	0.272136	0.811834	1.037546	0.221109	0.680880	0.963436	0.136056	0.517204	0.889325	1.700795	3.777093	6.594881	0.000000	0.000000	27.566203	-8.828235	-8.865748	2.567961	-12.058192	31.594661	52.319707	64.599892	7.112305	16.412714	18.208149	-9.809363	68.213396	50.317923	57.319017	-0.023964	-8.807356
0.183333	0.246601	-4.126075	82.013482	0.322164	0.895968	0.604383	8.348183	-1.384230	-9.055821	14.698268	0.256533	36.991608	16.325199	0.000000	6.907335	-2.240673	-13.707923	11.237078	0.196124	39.863806	15.013739	0.000000	0.230373	0.331853	1.185900	0.427825	0.441365	1.260018	0.378479	0.806868	1.260018	0.263293	0.806868	1.037662	0.213924	0.676716	0.963544	0.131635	0.514041	0.889425	1.645529	3.753993	6.595619	0.000000	0.000000	27.485319	-8.869805	-8.957289	2.620230	-12.050269	31.673799	52.221414	63.453466	6.873274	16.712393	18.651673	-9.752682	69.382841	50.079246	56.594268	-0.347582	-9.396302
0.200000	0.208194	-4.096005	82.032588	0.322081	0.895990	0.604523	8.505858	-1.477058	-9.303013	15.097550	0.263502	37.055443	16.413987	0.000000	6.901787	-2.184373	-13.680898	11.180517	0.195137	39.970835	15.119502	0.000000	0.225342	0.325908	1.182804	0.418483	0.433458	1.256729	0.370215	0.792414	1.256729	0.257544	0.792414	1.034953	0.209253	0.664593	0.961028	0.128761	0.504832	0.887103	1.609597	3.686742	6.578401	0.000000	0.000000	27.435091	-8.828825	-9.043496	2.679068	-12.015414	31.733141	52.099906	62.259118	6.570110	16.951264	19.039321	-9.682446	70.448576	49.829752	56.096538	-0.670265	-9.989481
0.216667	0.132362	-4.062010	82.048001	0.322075	0.895991	0.604645	8.668060	-1.598079	-9.512745	15.500184	0.270529	37.166060	16.448158	0.000000	6.895146	-2.095824	-13.695422	11.129859	0.194253	40.073730	15.246726	0.000000	0.220712	0.313935	1.171075	0.409885	0.417534	1.244267	0.362608	0.763302	1.244267	0.252252	0.763302	1.024690	0.204953	0.640177	0.951498	0.126115	0.486286	0.878306	1.576526	3.551299	6.513165	0.000000	0.000000	27.400340	-8.750581	-9.150321	2.786158	-11.938232	31.826388	51.927496	61.140769	6.251646	17.127391	19.333662	-9.640795	71.283230	49.625770	55.960052	-0.978242	-10.543619
0.233333	0.054732	-4.031409	82.061231	0.322100	0.895990	0.604710	8.808944	-1.713462	-9.712565	15.850190	0.276638	37.276760	16.490606	0.000000	6.890225	-2.016020	-13.791791	11.096499	0.193670	40.188998	15.456025	0.000000	0.218427	0.301237	1.161668	0.405641	0.400645	1.234272	0.358854	0.732427	1.234272	0.249640	0.732427	1.016459	0.202831	0.614282	0.943855	0.124809	0.466615	0.871251	1.560203	3.407648	6.460848	0.000000	0.000000	27.372910	-8.623204	-9.231334	2.878893	-11.864842	31.903741	51.772412	59.998823	5.830569	17.274160	19.668019	-9.606408	72.271104	49.408609	55.248281	-1.329807	-11.090282
0.250000	-0.034246	-4.005358	82.034364	0.322192	0.895976	0.604731	8.940594	-1.827031	-9.845841	16.156947	0.281992	37.389743	16.518562	0.000000	6.879024	-1.928201	-13.907304	11.063169	0.193089	40.284825	15.623386	0.000000	0.217848	0.286858	1.155547	0.404566	0.381521	1.227769	0.357903	0.697467	1.227769	0.248979	0.697467	1.011103	0.202294	0.584961	0.938882	0.124479	0.444343	0.866660	1.556069	3.244997	6.426805	0.000000	0.000000	27.353468	-8.470677	-9.294210	2.979431	-11.790628	31.997702	51.622947	58.969671	5.371486	17.373189	19.965419	-9.583792	73.154767	49.212503	54.515278	-1.642470	-11.583594
0.266667	-0.123492	-3.986769	81.993929	0.322310	0.895948	0.604714	9.054317	-1.924141	-9.891756	16.404996	0.286321	37.488482	16.466043	0.000000	6.864559	-1.838555	-13.998468	11.025720	0.192435	40.348099	15.721845	0.000000	0.218370	0.272132	1.145204	0.405536	0.361935	1.216780	0.358761	0.661661	1.216780	0.249575	0.661661	1.002054	0.202779	0.554931	0.930479	0.124777	0.421532	0.858903	1.559797	3.078409	6.369283	0.000000	0.000000	27.341391	-8.344565	-9.371865	3.100146	-11.727017	32.148113	51.477953	58.054135	4.900421	17.403863	20.203052	-9.579295	73.846391	49.071723	53.775517	-1.906000	-11.934732
0.283333	-0.200261	-3.981356	81.924376	0.322453	0.895902	0.604656	9.160453	-1.999228	-9.900077	16.609626	0.289893	37.577207	16.433304	0.000000	6.852834	-1.768889	-14.132811	11.001041	0.192004	40.390170	15.814634	0.000000	0.220464	0.259414	1.136015	0.409424	0.345021	1.207016	0.362201	0.630740	1.207016	0.251969	0.630740	0.994014	0.204723	0.528997	0.923013	0.125973	0.401832	0.852012	1.574754	2.934545	6.318177	0.000000	0.000000	27.340146	-8.281783	-9.444263	3.213626	-11.675803	32.287024	51.362769	57.335059	4.461719	17.411719	20.395690	-9.571053	74.373110	48.949778	53.102715	-2.094076	-12.201418
0.300000	-0.267239	-3.998623	81.848296	0.322590	0.895817	0.604566	9.266308	-2.061859	-9.924443	16.773816	0.292758	37.657089	16.454891	0.000000	6.863949	-1.719539	-14.320681	11.004107	0.192058	40.422307	15.933521	0.000000	0.225305	0.248606	1.123459	0.418414	0.330645	1.193675	0.370154	0.604460	1.193675	0.257501	0.604460	0.983026	0.209218	0.506956	0.912810	0.128739	0.385090	0.842594	1.609332	2.812276	6.248340	0.000000	0.000000	27.347097	-8.306170	-9.518165	3.316097	-11.634246	32.409765	51.283523	56.894752	4.092474	17.366464	20.537198	-9.567614	74.742539	48.854402	52.499529	-2.230520	-12.442497
0.316667	-0.317564	-4.015651	81.747056	0.322758	0.895726	0.604425	9.334523	-2.080214	-9.756720	16.860300	0.294268	37.681280	16.300860	0.000000	6.849298	-1.675321	-14.401788	10.979109	0.191622	40.403462	15.861513	0.000000	0.229413	0.240067	1.110651	0.426042	0.319289	1.180066	0.376902	0.583699	1.180066	0.262196	0.583699	0.971819	0.213033	0.489544	0.902404	0.131086	0.371864	0.832988	1.638672	2.715684	6.177106	0.000000	0.000000	27.367145	-8.398726	-9.609611	3.427622	-11.615918	32.593016	51.239530	56.552088	3.738828	17.237447	20.611011	-9.579471	74.915710	48.832934	51.894519	-2.342291	-12.506416
